HIERARCHY
ROOT root
{
	OFFSET	0	13.1	24.9
	CHANNELS 6  Xposition Yposition Zposition Xrotation Yrotation Zrotation
	JOINT spine_1
	{
		OFFSET	0	9.99999	0
		CHANNELS 3  Xrotation Yrotation Zrotation
		JOINT spine_2
		{
			OFFSET	0	112	-10
			CHANNELS 3  Xrotation Yrotation Zrotation
			JOINT spine_3
			{
				OFFSET	0	206.5	19.3
				CHANNELS 3  Xrotation Yrotation Zrotation
				JOINT spine_4
				{
					OFFSET	0	110.4	14.6
					CHANNELS 3  Xrotation Yrotation Zrotation
					JOINT neck_1
					{
						OFFSET	0	71.8	-50.3
						CHANNELS 3  Xrotation Yrotation Zrotation
						JOINT neck_2
						{
							OFFSET	0	86.2	-25.8
							CHANNELS 3  Xrotation Yrotation Zrotation
							JOINT head_ee
							{
								OFFSET	0	179.8	-8.7
								CHANNELS 3  Xrotation Yrotation Zrotation
								End Site
								{
									OFFSET	1	0	0
								}
							}
						}
					}
					JOINT left_clavicle
					{
						OFFSET	-43.2	22.4	-70.8
						CHANNELS 3  Xrotation Yrotation Zrotation
						JOINT left_shoulder
						{
							OFFSET	-93.9	-5.79999	48.7
							CHANNELS 3  Xrotation Yrotation Zrotation
							JOINT left_elbow
							{
								OFFSET	-291.4	-30.8	15.2
								CHANNELS 3  Xrotation Yrotation Zrotation
								JOINT left_lowarm_twist
								{
									OFFSET	-110.7	-3.89999	13.6
									CHANNELS 3  Xrotation Yrotation Zrotation
									JOINT left_hand
									{
										OFFSET	-110.7	-3.89999	13.6
										CHANNELS 3  Xrotation Yrotation Zrotation
										JOINT left_ee
										{
											OFFSET	-80.8	-5.10001	12.1
											CHANNELS 3  Xrotation Yrotation Zrotation
											End Site
											{
												OFFSET	1	0	0
											}
										}
									}
								}
							}
						}
					}
					JOINT right_clavicle
					{
						OFFSET	43.2	22.4	-70.8
						CHANNELS 3  Xrotation Yrotation Zrotation
						JOINT right_shoulder
						{
							OFFSET	93.9	-5.79999	48.7
							CHANNELS 3  Xrotation Yrotation Zrotation
							JOINT right_elbow
							{
								OFFSET	291.4	-30.8	15.2
								CHANNELS 3  Xrotation Yrotation Zrotation
								JOINT right_lowarm_twist
								{
									OFFSET	110.7	-3.89999	13.6
									CHANNELS 3  Xrotation Yrotation Zrotation
									JOINT right_hand
									{
										OFFSET	110.7	-3.89999	13.6
										CHANNELS 3  Xrotation Yrotation Zrotation
										JOINT right_ee
										{
											OFFSET	80.8	-5.10001	12.1
											CHANNELS 3  Xrotation Yrotation Zrotation
											End Site
											{
												OFFSET	1	0	0
											}
										}
									}
								}
							}
						}
					}
				}
			}
		}
	}
	JOINT left_hip
	{
		OFFSET	-82.8	-127.5	0.300001
		CHANNELS 3  Xrotation Yrotation Zrotation
		JOINT left_knee
		{
			OFFSET	-28.2	-396.7	2.2
			CHANNELS 3  Xrotation Yrotation Zrotation
			JOINT left_ankle
			{
				OFFSET	-11.7	-411.3	35.4
				CHANNELS 3  Xrotation Yrotation Zrotation
				JOINT left_toes
				{
					OFFSET	0	-60	-88.6
					CHANNELS 3  Xrotation Yrotation Zrotation
					JOINT left_foot_ee
					{
						OFFSET	-22.5	-16.5	-42.2
						CHANNELS 3  Xrotation Yrotation Zrotation
						End Site
						{
							OFFSET	1	0	0
						}
					}
				}
			}
		}
	}
	JOINT right_hip
	{
		OFFSET	82.8	-127.5	0.300001
		CHANNELS 3  Xrotation Yrotation Zrotation
		JOINT right_knee
		{
			OFFSET	28.2	-396.7	2.2
			CHANNELS 3  Xrotation Yrotation Zrotation
			JOINT right_ankle
			{
				OFFSET	11.7	-411.3	35.4
				CHANNELS 3  Xrotation Yrotation Zrotation
				JOINT right_toes
				{
					OFFSET	0	-60	-88.6
					CHANNELS 3  Xrotation Yrotation Zrotation
					JOINT right_foot_ee
					{
						OFFSET	22.5	-16.5	-42.2
						CHANNELS 3  Xrotation Yrotation Zrotation
						End Site
						{
							OFFSET	1	0	0
						}
					}
				}
			}
		}
	}
}
MOTION
Frames: 5
Frame Time: 0.02
3626.42 684.463 -1641.16 -83.2308 85.1599 81.8744 1.75635 0.33819 0.666747 1.75655 0.295079 0.686914 1.76015 0.166597 0.728811 1.75951 0.279605 0.693356 -7.96031 -8.98471 -5.42103 -7.9057 -12.9423 -7.31091 -0.0 0.0 -0.0 5.36694 23.8149 10.1109 -20.467 -5.84183 59.9559 0.226807 -6.41067 0.0127017 0.947928 0.0324338 -0.116721 -3.9388 28.7153 -10.0799 -0.0 0.0 -0.0 8.22538 -0.252897 -16.0344 -29.9605 18.7665 -72.4776 0.202988 5.74218 -0.0101803 16.2659 -0.283612 2.05151 3.50623 -30.2709 -32.3017 0.0 0.0 0.0 9.52069 10.2442 -5.23774 -14.0724 0.319148 2.13059 36.5546 -10.7215 -4.73126 -13.34 0.0 0.0 -0.0 0.0 -0.0 -0.180067 -19.2426 4.02028 5.8034 0.282103 0.845252 29.7726 25.7565 4.54686 -19.8471 0.0 0.0 0.0 0.0 0.0 
3627.85 688.058 -1643.72 -83.5312 84.6818 81.8587 1.72702 0.364177 0.825377 1.72735 0.31092 0.846876 1.73202 0.152949 0.889084 1.73104 0.291439 0.853775 -8.47417 -8.34087 -5.70808 -8.41271 -11.6147 -7.49549 -0.0 0.0 -0.0 5.54401 23.7783 10.3603 -19.9996 -6.01029 59.3621 0.223282 -6.31183 0.0123112 1.53244 0.0514676 -0.188951 -3.44611 28.6706 -7.41636 -0.0 0.0 -0.0 8.53817 -0.179159 -16.6656 -29.7542 18.6272 -73.1123 0.207652 5.87321 -0.0106522 16.2833 -0.283601 2.05373 3.51798 -30.2688 -32.3786 0.0 0.0 0.0 9.78194 10.9603 -4.68052 -13.5886 0.316914 2.05639 35.6376 -10.9731 -4.64929 -13.0514 0.0 0.0 -0.0 0.0 -0.0 0.920364 -19.5459 4.17496 5.10692 0.243733 0.745345 29.8038 28.8637 4.71539 -20.9742 0.0 0.0 0.0 0.0 0.0 
3622.07 688.911 -1643.79 -83.1459 84.0626 81.3059 1.71611 0.425155 0.909217 1.7165 0.36644 0.934426 1.72258 0.191602 0.985246 1.72139 0.344791 0.942628 -9.25556 -7.3465 -4.8925 -9.21974 -10.4284 -6.53067 -0.0 0.0 -0.0 5.42587 23.8376 10.1921 -19.7301 -6.08637 59.377 0.241265 -6.81556 0.0143667 2.20093 0.0723308 -0.271788 -3.09589 28.597 -5.55832 -0.0 0.0 -0.0 8.99561 -1.96172 -17.5226 -30.4974 18.4178 -71.7157 0.202759 5.73574 -0.0101573 16.2681 -0.28361 2.05179 3.53917 -30.1502 -32.5052 0.0 0.0 0.0 10.1185 12.7541 -4.93597 -14.9031 0.32152 2.25801 37.5466 -14.1785 -4.9173 -13.3143 0.0 0.0 -0.0 0.0 -0.0 1.93235 -20.677 4.34961 4.91371 0.233305 0.71755 29.5727 29.6239 4.73064 -23.3975 0.0 0.0 0.0 0.0 0.0 
3622.11 689.526 -1643.47 -83.8639 84.1449 81.8165 1.67699 0.390784 1.01412 1.6775 0.325464 1.03693 1.6835 0.132041 1.07875 1.682 0.300743 1.04436 -10.2199 -6.31585 -3.14633 -10.2271 -9.78697 -4.65476 -0.0 0.0 -0.0 5.3628 23.4753 10.1216 -19.2654 -6.29876 59.7942 0.25718 -7.26049 0.0163167 2.77743 0.0895454 -0.343415 -2.68123 28.6978 -3.26389 -0.0 0.0 -0.0 9.43322 -2.53915 -18.3703 -30.3879 18.099 -71.1298 0.201082 5.68861 -0.00999046 16.473 -0.283442 2.07795 3.54966 -29.9927 -32.5573 0.0 0.0 0.0 12.0861 13.8022 -5.26355 -15.1596 0.32188 2.29738 35.0199 -18.9492 -4.83296 -14.9696 0.0 0.0 -0.0 0.0 -0.0 1.80594 -19.8601 5.12765 4.69516 0.221623 0.686068 28.9311 31.9697 4.79393 -25.6442 0.0 0.0 0.0 0.0 0.0 
3623.98 691.389 -1645.27 -85.1981 84.0736 82.8916 1.67406 0.335552 1.14517 1.67475 0.262007 1.1642 1.68018 0.046475 1.19241 1.67828 0.234198 1.17011 -10.6689 -6.17916 -3.36562 -10.6735 -9.42571 -4.86635 -0.0 0.0 -0.0 5.30484 22.3157 10.0916 -18.1379 -6.64011 60.0121 0.286149 -8.06811 0.0201804 3.27075 0.103703 -0.40484 -2.41625 28.7049 -1.83419 -0.0 0.0 -0.0 9.82965 -3.25392 -19.1215 -30.3136 17.8958 -70.3343 0.200777 5.68006 -0.00996024 16.7537 -0.28306 2.11381 3.5858 -29.966 -32.7937 0.0 0.0 0.0 12.7878 15.0174 -5.26883 -13.5804 0.316871 2.05514 34.0467 -20.014 -4.77368 -15.4843 0.0 0.0 -0.0 0.0 -0.0 2.67632 -20.1543 5.13872 4.44023 0.208148 0.64929 28.9781 31.2135 4.75157 -27.2851 0.0 0.0 0.0 0.0 0.0 
